<svg width="1024" height="1024" viewBox="0 0 1024 1024" fill="none" xmlns="http://www.w3.org/2000/svg">
<g clip-path="url(#clip0_90_30)">
<rect width="1024" height="1024" fill="#0A0B99"/>
<g filter="url(#filter0_df_90_30)">
<path d="M515.538 328.458C519.15 319.77 531.671 320.426 534.356 329.445L571.098 452.881C571.911 455.612 573.849 457.866 576.428 459.078L688.965 511.991C697.076 515.804 696.461 527.54 687.996 530.485L570.544 571.344C567.853 572.28 565.69 574.319 564.596 576.95L515.152 695.87C511.54 704.558 499.019 703.902 496.334 694.884L459.592 571.447C458.779 568.716 456.84 566.462 454.262 565.25L341.725 512.338C333.614 508.524 334.229 496.788 342.694 493.843L460.146 452.984C462.836 452.048 465 450.009 466.094 447.378L515.538 328.458Z" fill="white" fill-opacity="0.75" shape-rendering="crispEdges"/>
</g>
<g filter="url(#filter1_df_90_30)">
<path d="M213.22 775.61C202.989 763.082 193.137 750.244 183.665 737.096L181.775 734.461L181.25 733.725L180.772 732.956C171.628 718.231 162.959 703.21 154.766 687.892L154.339 687.095L153.965 686.271C146.759 670.417 140.064 654.33 133.882 638.009L133.561 637.163L133.296 636.298C128.167 619.57 123.577 602.676 119.528 585.616L119.319 584.735L119.167 583.842C116.403 567.597 114.131 551.266 112.351 534.852L112.002 531.567L111.907 530.667L111.871 529.763C111.217 513.22 111.065 496.655 111.413 480.071L111.489 476.753L111.512 475.848L111.592 474.947C113.078 458.38 115.067 441.857 117.556 425.378L118.061 422.083L118.199 421.188L118.396 420.305C122.017 403.992 126.132 387.787 130.741 371.691L131.669 368.473L131.922 367.604L132.23 366.753C137.945 350.967 144.137 335.354 150.807 319.914L152.148 316.828L152.51 315.998L152.925 315.194C160.656 300.206 168.842 285.452 177.481 270.931L179.214 268.03L179.68 267.254L180.195 266.509C190.474 251.648 201.234 237.117 212.472 222.919L213.035 222.209L213.641 221.536C225.799 208.059 238.392 194.973 251.419 182.28L252.068 181.648L252.756 181.059C266.607 169.203 280.839 157.794 295.454 146.832L309.913 135.988C314.331 132.674 320.6 133.57 323.914 137.989L345.569 166.871C348.882 171.289 347.986 177.556 343.568 180.869L329.108 191.715C315.7 201.772 302.64 212.231 289.927 223.089C278.208 234.533 266.869 246.315 255.91 258.436C245.81 271.226 236.128 284.301 226.864 297.661C218.533 311.575 210.651 325.716 203.218 340.084C196.777 354.878 190.808 369.838 185.312 384.965C180.849 400.386 176.874 415.909 173.386 431.537C170.955 447.32 169.02 463.143 167.578 479.006C167.199 494.892 167.313 510.754 167.92 526.592C169.58 542.31 171.723 557.941 174.348 573.486C177.998 588.783 182.113 603.932 186.694 618.934C192.253 633.556 198.251 647.972 204.69 662.183C212.048 675.899 219.813 689.354 227.987 702.552C237 715.138 246.383 727.416 256.135 739.387C266.641 750.652 277.472 761.566 288.629 772.129C300.432 781.893 312.511 791.269 324.866 800.258C337.765 808.381 350.885 816.086 364.229 823.374C377.988 829.733 391.912 835.652 406.003 841.131C420.401 845.646 434.906 849.704 449.519 853.308C464.294 855.917 479.115 858.065 493.984 859.749C508.894 860.432 523.79 860.653 538.674 860.412C553.473 859.177 568.2 857.488 582.856 855.346C597.292 852.236 611.599 848.688 625.778 844.702C639.623 839.787 653.284 834.456 666.763 828.709C679.787 822.093 692.576 815.091 705.132 807.702C717.137 799.508 728.861 790.963 740.305 782.066C751.092 772.454 761.558 762.532 771.702 752.301C781.115 741.44 790.17 730.315 798.869 718.925C806.762 707.012 814.269 694.884 821.39 682.541C827.651 669.785 833.502 656.866 838.946 643.785C843.487 630.408 847.605 616.924 851.3 603.331C854.066 589.565 856.402 575.747 858.307 561.876C859.274 547.945 859.81 534.019 859.913 520.096C859.085 506.239 857.831 492.44 856.152 478.7C853.562 465.144 850.56 451.7 847.147 438.37C842.858 425.34 838.178 412.474 833.108 399.772C827.213 387.476 820.954 375.392 814.331 363.519C806.945 352.153 799.229 341.042 791.179 330.186C782.442 319.924 773.41 309.957 764.082 300.283C754.158 291.288 743.981 282.621 733.55 274.281C722.614 266.685 711.47 259.443 700.119 252.556C688.366 246.468 676.455 240.756 664.384 235.42C652.016 230.922 639.54 226.815 626.955 223.099C614.195 220.25 601.379 217.8 588.507 215.749C575.556 214.572 562.601 213.796 549.642 213.42C536.735 213.917 523.875 214.808 511.061 216.094C498.397 218.235 485.831 220.76 473.36 223.667C461.156 227.395 449.096 231.488 437.181 235.946C425.628 241.181 414.264 246.757 403.089 252.674C392.373 259.309 381.888 266.257 371.633 273.515C361.686 281.615 352.018 290.003 342.631 298.685L329.361 310.958C325.307 314.708 318.98 314.461 315.23 310.407L290.719 283.905C286.969 279.851 287.216 273.524 291.27 269.774L304.54 257.502C315.037 247.793 325.851 238.421 336.981 229.385L337.685 228.814L338.423 228.29C350.147 219.966 362.144 212.018 374.411 204.447L375.182 203.971L375.982 203.546C388.75 196.761 401.739 190.386 414.951 184.423L415.776 184.051L416.624 183.732C430.233 178.618 444.01 173.941 457.954 169.704L458.822 169.441L459.703 169.234C473.933 165.895 488.274 163.015 502.726 160.594L503.62 160.443L504.52 160.351C519.14 158.862 533.811 157.846 548.532 157.301L549.437 157.268L550.342 157.293C565.11 157.7 579.869 158.583 594.616 159.945L595.518 160.029L596.412 160.17C611.083 162.486 625.681 165.277 640.207 168.543L641.09 168.741L641.96 168.997C656.285 173.204 670.478 177.877 684.536 183.013L685.387 183.323L686.215 183.688C699.951 189.737 713.496 196.231 726.846 203.17L727.648 203.588L728.423 204.056C741.334 211.865 753.995 220.093 766.405 228.739L767.148 229.256L767.856 229.821C779.716 239.277 791.272 249.118 802.524 259.344L803.194 259.953L803.823 260.603C814.422 271.565 824.668 282.872 834.561 294.523L835.148 295.213L835.687 295.939C844.834 308.24 853.585 320.838 861.938 333.734L862.431 334.494L862.873 335.284C870.398 348.73 877.491 362.422 884.149 376.359L884.539 377.176L884.876 378.016C890.638 392.395 895.936 406.962 900.77 421.718L901.052 422.579L901.277 423.456C905.16 438.535 908.557 453.744 911.466 469.08L911.634 469.969L911.746 470.867C913.666 486.402 915.083 502.003 915.999 517.668L916.052 518.571L916.046 519.477C915.95 535.212 915.345 550.947 914.232 566.681L914.169 567.584L914.047 568.481C911.916 584.155 909.278 599.762 906.134 615.303L905.954 616.19L905.718 617.064C901.567 632.412 896.92 647.629 891.777 662.714L891.484 663.571L891.138 664.408C885.017 679.17 878.417 693.737 871.341 708.108L870.941 708.922L870.489 709.707C862.48 723.631 854.019 737.298 845.109 750.708L844.608 751.462L844.059 752.182C834.278 765.025 824.079 777.555 813.466 789.769L812.872 790.453L812.235 791.097C800.827 802.634 789.044 813.803 776.888 824.606L776.212 825.208L775.497 825.765C762.637 835.789 749.452 845.398 735.943 854.594L735.194 855.103L734.415 855.564C720.304 863.892 705.923 871.765 691.273 879.184L690.465 879.593L689.632 879.949C674.495 886.425 659.148 892.414 643.591 897.914L642.737 898.216L641.867 898.462C625.947 902.96 609.88 906.944 593.668 910.415L592.783 910.605L591.887 910.737C575.444 913.162 558.92 915.057 542.318 916.42L541.416 916.494L540.511 916.509C523.813 916.801 507.105 916.553 490.388 915.766L489.484 915.724L488.584 915.623C471.91 913.756 455.296 911.349 438.741 908.404L437.85 908.246L436.97 908.03C420.6 904.014 404.358 899.468 388.245 894.394L387.382 894.122L386.538 893.795C370.746 887.677 355.151 881.049 339.755 873.91L338.934 873.53L338.139 873.097C323.197 864.96 308.518 856.339 294.101 847.235L293.336 846.752L292.603 846.221C278.77 836.181 265.26 825.694 252.074 814.76L251.377 814.182L250.719 813.56C238.235 801.769 226.131 789.573 214.409 776.973L213.792 776.311L213.22 775.61Z" fill="white" fill-opacity="0.75" shape-rendering="crispEdges"/>
</g>
</g>
<defs>
<filter id="filter0_df_90_30" x="331.979" y="321.297" width="366.73" height="388.734" filterUnits="userSpaceOnUse" color-interpolation-filters="sRGB">
<feFlood flood-opacity="0" result="BackgroundImageFix"/>
<feColorMatrix in="SourceAlpha" type="matrix" values="0 0 0 0 0 0 0 0 0 0 0 0 0 0 0 0 0 0 127 0" result="hardAlpha"/>
<feOffset dy="4"/>
<feGaussianBlur stdDeviation="2"/>
<feComposite in2="hardAlpha" operator="out"/>
<feColorMatrix type="matrix" values="0 0 0 0 0 0 0 0 0 0 0 0 0 0 0 0 0 0 0.25 0"/>
<feBlend mode="normal" in2="BackgroundImageFix" result="effect1_dropShadow_90_30"/>
<feBlend mode="normal" in="SourceGraphic" in2="effect1_dropShadow_90_30" result="shape"/>
<feGaussianBlur stdDeviation="0.5" result="effect2_foregroundBlur_90_30"/>
</filter>
<filter id="filter1_df_90_30" x="107.231" y="132.987" width="812.82" height="791.64" filterUnits="userSpaceOnUse" color-interpolation-filters="sRGB">
<feFlood flood-opacity="0" result="BackgroundImageFix"/>
<feColorMatrix in="SourceAlpha" type="matrix" values="0 0 0 0 0 0 0 0 0 0 0 0 0 0 0 0 0 0 127 0" result="hardAlpha"/>
<feOffset dy="4"/>
<feGaussianBlur stdDeviation="2"/>
<feComposite in2="hardAlpha" operator="out"/>
<feColorMatrix type="matrix" values="0 0 0 0 0 0 0 0 0 0 0 0 0 0 0 0 0 0 0.25 0"/>
<feBlend mode="normal" in2="BackgroundImageFix" result="effect1_dropShadow_90_30"/>
<feBlend mode="normal" in="SourceGraphic" in2="effect1_dropShadow_90_30" result="shape"/>
<feGaussianBlur stdDeviation="0.5" result="effect2_foregroundBlur_90_30"/>
</filter>
<clipPath id="clip0_90_30">
<rect width="1024" height="1024" fill="white"/>
</clipPath>
</defs>
</svg>
